<svg xmlns="http://www.w3.org/2000/svg" viewBox="0 0 236.8 235.33">
    <title>kurv</title>
    <path d="M219.91,131a7.34,7.34,0,0,0,6.25-6.36L236.74,40a7.34,7.34,0,0,0-7.29-8.26H65.52L56.62,5a7.34,7.34,0,0,0-7-5H7.35a7.35,7.35,0,1,0,0,14.69h37L53,40.62,63.23,143,43.54,172.5a7.34,7.34,0,0,0,6.11,11.42H218.88a7.34,7.34,0,0,0,0-14.69H63.37l11.72-17.58Zm1.22-84.54-8.85,70.79L77.35,136.49l-9-90.07Z"/>
    <path d="M81.38,191.85a21.74,21.74,0,1,0,21.74,21.74A21.77,21.77,0,0,0,81.38,191.85Zm0,31.73a10,10,0,1,1,10-10A10,10,0,0,1,81.38,223.58Z"/>
    <path d="M187.15,191.85a21.74,21.74,0,1,0,21.74,21.74A21.77,21.77,0,0,0,187.15,191.85Zm0,31.73a10,10,0,1,1,10-10A10,10,0,0,1,187.15,223.58Z"/>
</svg>
